<svg width="21" height="21" viewBox="0 0 21 21" fill="none" xmlns="http://www.w3.org/2000/svg">
<path d="M10.9883 0.500008L11.0123 0.000584215C10.7379 -0.0126036 10.5043 0.198009 10.4891 0.47227L10.9883 0.500008ZM20.5 10.0117L20.5277 10.511C20.802 10.4957 21.0126 10.2621 20.9994 9.98773L20.5 10.0117ZM13.2529 13.2529L13.6065 13.6065L13.6065 13.6065L13.2529 13.2529ZM10.0117 20.5L9.98771 20.9994C10.2621 21.0126 10.4957 20.802 10.5109 20.5277L10.0117 20.5ZM0.5 10.9883L0.472265 10.4891C0.198006 10.5043 -0.0126072 10.7379 0.000576228 11.0123L0.5 10.9883ZM7.74707 7.74708L7.39352 7.39352L7.3935 7.39354L7.74707 7.74708ZM20.4922 11.127L20.9912 11.1578C21.0001 11.0147 20.9471 10.8747 20.8457 10.7733C20.7442 10.672 20.6042 10.619 20.4611 10.6279L20.4922 11.127ZM19.8467 14.0957L20.3133 14.2754L20.3135 14.2748L19.8467 14.0957ZM14.1777 19.8145L14.361 20.2796L14.3614 20.2795L14.1777 19.8145ZM11.127 20.4922L10.6279 20.4611C10.619 20.6042 10.672 20.7443 10.7733 20.8457C10.8747 20.9471 11.0148 21.0001 11.1579 20.9912L11.127 20.4922ZM14.04 14.04L14.3935 14.3937L14.3937 14.3935L14.04 14.04ZM9.87305 0.50782L10.3721 0.538932C10.381 0.395803 10.328 0.255733 10.2266 0.154315C10.1253 0.0528972 9.9852 -0.000103772 9.84207 0.00878057L9.87305 0.50782ZM6.95996 6.95997L6.60648 6.60634L6.60631 6.60651L6.95996 6.95997ZM0.507812 9.87305L0.0087972 9.84169C-0.000202835 9.98488 0.052743 10.125 0.154169 10.2265C0.255594 10.328 0.395725 10.381 0.538922 10.3721L0.507812 9.87305ZM1.20605 6.77052L0.742079 6.58416L0.741915 6.58457L1.20605 6.77052ZM3.29004 3.55372L3.65021 3.90053L3.65135 3.89934L3.29004 3.55372ZM3.4209 3.42091L3.06735 3.06735L3.4209 3.42091ZM3.54492 3.29884L3.88997 3.66071L3.89249 3.65827L3.54492 3.29884ZM10.9883 0.500008L10.9643 0.999431C15.8475 1.23415 19.7659 5.15229 20.0006 10.0357L20.5 10.0117L20.9994 9.98773C20.74 4.58971 16.41 0.260034 11.0123 0.000584215L10.9883 0.500008ZM20.5 10.0117L20.4723 9.5125C17.7176 9.66553 15.0042 10.7943 12.8994 12.8994L13.2529 13.2529L13.6065 13.6065C15.5306 11.6822 18.0089 10.6509 20.5277 10.511L20.5 10.0117ZM13.2529 13.2529L12.8994 12.8994C10.7944 15.0044 9.66554 17.7175 9.51249 20.4723L10.0117 20.5L10.5109 20.5277C10.6509 18.009 11.6822 15.5308 13.6065 13.6065L13.2529 13.2529ZM10.0117 20.5L10.0357 20.0006C5.1525 19.7659 1.23408 15.8477 0.999424 10.9643L0.5 10.9883L0.000576228 11.0123C0.259954 16.4103 4.58998 20.74 9.98771 20.9994L10.0117 20.5ZM0.5 10.9883L0.527735 11.4875C3.28244 11.3345 5.99576 10.2057 8.10064 8.10061L7.74707 7.74708L7.3935 7.39354C5.46938 9.31785 2.99106 10.3491 0.472265 10.4891L0.5 10.9883ZM7.74707 7.74708L8.10062 8.10063C10.2056 5.99562 11.3345 3.28247 11.4875 0.527745L10.9883 0.500008L10.4891 0.47227C10.3491 2.99105 9.3178 5.46924 7.39352 7.39352L7.74707 7.74708ZM20.4922 11.127L19.9931 11.0961C19.9338 12.0554 19.7287 13.0074 19.3799 13.9166L19.8467 14.0957L20.3135 14.2748C20.699 13.27 20.9256 12.2181 20.9912 11.1578L20.4922 11.127ZM19.8467 14.0957L19.3801 13.916C18.4254 16.3951 16.4627 18.3745 13.9941 19.3494L14.1777 19.8145L14.3614 20.2795C17.0903 19.2019 19.2582 17.0153 20.3133 14.2754L19.8467 14.0957ZM14.1777 19.8145L13.9944 19.3493C13.0621 19.7167 12.0832 19.9319 11.096 19.9932L11.127 20.4922L11.1579 20.9912C12.2488 20.9236 13.3305 20.6857 14.361 20.2796L14.1777 19.8145ZM11.127 20.4922L11.626 20.5233C11.7652 18.2897 12.6872 16.0992 14.3935 14.3937L14.04 14.04L13.6866 13.6864C11.8013 15.5709 10.7817 17.9936 10.6279 20.4611L11.127 20.4922ZM14.04 14.04L14.3937 14.3935C16.0991 12.6872 18.2905 11.7652 20.5233 11.626L20.4922 11.127L20.4611 10.6279C17.9944 10.7817 15.5708 11.8012 13.6864 13.6866L14.04 14.04ZM9.87305 0.50782L9.37402 0.476708C9.23482 2.70934 8.3127 4.90082 6.60648 6.60634L6.95996 6.95997L7.31344 7.31359C9.19867 5.42915 10.2183 3.0054 10.3721 0.538932L9.87305 0.50782ZM6.95996 6.95997L6.60631 6.60651C4.9009 8.31285 2.71046 9.23477 0.476703 9.37402L0.507812 9.87305L0.538922 10.3721C3.00654 10.2183 5.42926 9.1988 7.31361 7.31343L6.95996 6.95997ZM0.507812 9.87305L1.00683 9.90442C1.06996 8.89992 1.29089 7.90325 1.67019 6.95646L1.20605 6.77052L0.741915 6.58457C0.322389 7.63177 0.0784851 8.73295 0.0087972 9.84169L0.507812 9.87305ZM1.20605 6.77052L1.67003 6.95687C2.13 5.81164 2.80731 4.77589 3.65021 3.90053L3.29004 3.55372L2.92987 3.20691C1.99944 4.17317 1.25086 5.31741 0.742079 6.58416L1.20605 6.77052ZM3.29004 3.55372L3.65135 3.89934C3.68984 3.8591 3.72987 3.81904 3.77445 3.77446L3.4209 3.42091L3.06735 3.06735C3.02406 3.11064 2.97616 3.15852 2.92873 3.2081L3.29004 3.55372ZM3.4209 3.42091L3.77445 3.77446C3.81615 3.73276 3.85301 3.69594 3.88996 3.6607L3.54492 3.29884L3.19988 2.93697C3.15288 2.98179 3.10765 3.02705 3.06735 3.06735L3.4209 3.42091ZM3.54492 3.29884L3.89249 3.65827C5.58017 2.02629 7.72264 1.14226 9.90402 1.00686L9.87305 0.50782L9.84207 0.00878057C7.43199 0.158377 5.06241 1.13588 3.19735 2.9394L3.54492 3.29884Z" fill="#1F2E46"/>
</svg>
