<svg width="17" height="21" viewBox="0 0 17 21" fill="none" xmlns="http://www.w3.org/2000/svg">
<path d="M16.4626 9.29966L12.8746 0.787704C12.8014 0.614093 12.6332 0.5 12.4439 0.5H4.55606C4.36674 0.5 4.19854 0.614087 4.12543 0.787704L0.537376 9.29966C0.512189 9.35918 0.5 9.42201 0.5 9.48815V18.3728C0.5 19.5451 1.43845 20.5 2.59064 20.5H14.4094C15.5615 20.5 16.5 19.5451 16.5 18.3728V9.48815C16.5 9.42284 16.487 9.35918 16.4626 9.29966ZM6.50531 2.83892H10.4948C11.0002 2.83892 11.4097 3.2556 11.4097 3.7698C11.4097 4.28402 11.0002 4.70068 10.4948 4.70068L6.50531 4.7015C5.99993 4.7015 5.59043 4.28483 5.59043 3.77063C5.59043 3.25558 5.99995 2.83892 6.50531 2.83892ZM12.6081 14.7941L12.9786 15.1669C13.1655 15.3595 13.2695 15.6117 13.2695 15.882C13.2695 16.1532 13.1655 16.4045 12.9786 16.5955C12.7974 16.7798 12.5415 16.8856 12.2774 16.8856C12.0134 16.8856 11.7574 16.7798 11.5762 16.5979L10.7751 15.7811C10.7669 15.7745 10.7588 15.7663 10.7377 15.7663L6.26147 15.7654C6.25091 15.7654 6.23629 15.7679 6.2241 15.7778L5.42541 16.5946C5.24259 16.779 4.98665 16.8848 4.72259 16.8848C4.45853 16.8848 4.20258 16.779 4.02139 16.5971C3.83451 16.4045 3.73052 16.1523 3.73052 15.882C3.73052 15.6108 3.83452 15.3595 4.02139 15.1685L4.39188 14.7916C4.40001 14.7833 4.40651 14.7701 4.40651 14.7552C4.40651 14.7403 4.40001 14.7279 4.39188 14.7172L4.02139 14.3443C3.83451 14.1517 3.73052 13.8995 3.73052 13.6292C3.73052 13.3581 3.83452 13.1067 4.02139 12.9157C4.20258 12.7314 4.45853 12.6256 4.72259 12.6256C4.98665 12.6256 5.24259 12.7314 5.42378 12.9133L6.22493 13.7301C6.23143 13.7367 6.24118 13.745 6.26231 13.745H10.7385C10.7597 13.745 10.7694 13.7367 10.7718 13.7326L11.577 12.9157C11.7582 12.7314 12.0142 12.6256 12.2782 12.6256C12.5423 12.6256 12.7982 12.7314 12.9794 12.9133C13.1663 13.1059 13.2703 13.3581 13.2703 13.6284C13.2703 13.8995 13.1663 14.1509 12.9794 14.3418L12.6089 14.7188C12.6008 14.7271 12.5943 14.7403 12.5943 14.7552C12.5935 14.7709 12.6 14.7833 12.6081 14.7941Z" stroke="#1F2E46"/>
</svg>
