<svg width="21" height="21" viewBox="0 0 21 21" fill="none" xmlns="http://www.w3.org/2000/svg">
<path fill-rule="evenodd" clip-rule="evenodd" d="M3.33548 4.85153C2.64938 2.69137 4.30502 0.5 6.62471 0.5H14.3752C16.6949 0.5 18.3506 2.69142 17.6645 4.85153C17.5923 5.07712 17.5553 5.31249 17.5553 5.54979V6.46287C17.5553 6.87595 17.8167 7.24705 18.2123 7.3955L19.1879 7.7627C19.9782 8.06056 20.5 8.80176 20.5 9.62892V18.5107C20.5 19.6094 19.5865 20.5 18.4607 20.5C17.7556 20.5 17.1847 19.9424 17.1847 19.2549V13.3993C17.1847 13.1229 16.9543 12.8993 16.6719 12.8993H16.141V19.9999C16.141 20.2753 15.9117 20.4999 15.6282 20.4999C15.3448 20.4999 15.1154 20.2753 15.1154 19.9999V12.8993H14.0897V19.9999C14.0897 20.2753 13.8604 20.4999 13.5769 20.4999C13.2935 20.4999 13.0641 20.2753 13.0641 19.9999V12.8993H12.0385V19.9999C12.0385 20.2753 11.8091 20.4999 11.5256 20.4999C11.2422 20.4999 11.0128 20.2753 11.0128 19.9999V12.8993H9.98718V19.9999C9.98718 20.2753 9.75781 20.4999 9.47436 20.4999C9.19091 20.4999 8.96154 20.2753 8.96154 19.9999V12.8993H7.9359V19.9999C7.9359 20.2753 7.70653 20.4999 7.42308 20.4999C7.13962 20.4999 6.91026 20.2753 6.91026 19.9999V12.8993H5.88462V19.9999C5.88462 20.2753 5.65525 20.4999 5.3718 20.4999C5.08834 20.4999 4.85897 20.2753 4.85897 19.9999V12.8993H4.32813C4.04567 12.8993 3.81531 13.123 3.81531 13.3993V19.2549C3.81531 19.9424 3.24438 20.5 2.53926 20.5C1.41346 20.5 0.5 19.6094 0.5 18.5107V9.62892C0.5 8.80176 1.02185 8.06056 1.8121 7.7627L2.78767 7.3955C3.18331 7.24706 3.44472 6.87597 3.44472 6.46287V5.54979C3.44472 5.31248 3.4076 5.07713 3.33548 4.85153ZM5.88456 5.74999C5.88456 4.5068 6.9182 3.49997 8.19225 3.49997H12.8076C14.0817 3.49997 15.1153 4.5068 15.1153 5.74999C15.1153 6.9922 14.0817 8.00001 12.8076 8.00001H8.19225C6.9182 8.00001 5.88456 6.9922 5.88456 5.74999Z" stroke="#1F2E46" stroke-linejoin="round"/>
</svg>
