<svg width="23" height="17" viewBox="0 0 23 17" fill="none" xmlns="http://www.w3.org/2000/svg">
<path d="M22.436 10.3096L22.9301 10.2327C22.908 10.0909 22.8261 9.96537 22.7051 9.88814C22.5841 9.81091 22.4358 9.78938 22.2979 9.82904L22.436 10.3096ZM22.4995 11.1367H22.9995V11.1367L22.4995 11.1367ZM17.1392 16.5L17.1392 17H17.1392V16.5ZM12.2095 13.25L12.0713 12.7695C11.9336 12.8091 11.8195 12.9058 11.7579 13.0352C11.6964 13.1646 11.6933 13.3142 11.7495 13.446L12.2095 13.25ZM10.6763 11.3506L11.0298 11.7041C11.2209 11.5131 11.2256 11.2047 11.0404 11.0079L10.6763 11.3506ZM6.91455 15.1123L7.26794 15.466L7.2681 15.4659L6.91455 15.1123ZM1.59717 15.1123L1.24328 15.4655L1.24355 15.4658L1.59717 15.1123ZM1.59717 9.7959L1.24361 9.44234L1.24329 9.44267L1.59717 9.7959ZM5.521 5.87207L5.88513 5.52942C5.79245 5.43093 5.66382 5.37418 5.52859 5.37213C5.39337 5.37007 5.26307 5.42289 5.16744 5.51852L5.521 5.87207ZM17.1313 5.79102L17.1314 5.29102H17.1313V5.79102ZM22.1636 9.2998L22.3017 9.78034C22.4352 9.74198 22.5466 9.64987 22.6095 9.52606C22.6723 9.40225 22.6808 9.2579 22.633 9.12756L22.1636 9.2998ZM11.8843 12.2549L11.3949 12.3574C11.4234 12.4935 11.5072 12.6115 11.6263 12.6832C11.7453 12.7549 11.8889 12.7738 12.0224 12.7354L11.8843 12.2549ZM11.7837 11.5068L12.2828 11.4765L12.2822 11.4688L11.7837 11.5068ZM11.771 11.1504H11.271V11.1504L11.771 11.1504ZM11.8687 10.1328L12.3593 10.2293L12.3594 10.2288L11.8687 10.1328ZM16.7046 5.80664L16.7442 6.30507L16.7453 6.30498L16.7046 5.80664ZM12.4888 0.5V0H12.4887L12.4888 0.5ZM15.1489 1.59961L15.5027 1.24629L15.5025 1.24606L15.1489 1.59961ZM16.2515 4.25977L16.7515 4.25982V4.25977H16.2515ZM16.2095 4.8125L16.2684 5.30901C16.4925 5.2824 16.6709 5.10907 16.7041 4.88591L16.2095 4.8125ZM16.1665 4.82129L16.1038 4.32515L16.0943 4.32652L16.1665 4.82129ZM15.6538 4.91895L15.5387 4.43237L15.538 4.43254L15.6538 4.91895ZM15.5962 4.93262L15.4804 4.4462L15.4767 4.4471L15.5962 4.93262ZM15.0894 5.0791L14.9297 4.60527C14.9171 4.60952 14.9047 4.61428 14.8924 4.61952L15.0894 5.0791ZM15.0503 5.09375L14.8921 4.61941L14.8877 4.62093L15.0503 5.09375ZM14.5474 5.29004L14.3462 4.83231C14.3386 4.83563 14.3311 4.83913 14.3238 4.84283L14.5474 5.29004ZM14.5308 5.29785L14.7336 5.75486C14.7406 5.75175 14.7475 5.74849 14.7544 5.74507L14.5308 5.29785ZM14.0376 5.54395L14.2722 5.98559L14.2798 5.98137L14.0376 5.54395ZM14.0317 5.54688L13.8009 5.1032L13.7904 5.10899L14.0317 5.54688ZM13.5688 5.83105L13.8455 6.24756L13.8468 6.2467L13.5688 5.83105ZM13.5435 5.84766L13.825 6.26089L13.8294 6.2578L13.5435 5.84766ZM13.1235 6.15918L12.8109 5.76898C12.8066 5.77243 12.8023 5.77595 12.7982 5.77954L13.1235 6.15918ZM13.0845 6.19043L13.4005 6.57812L13.4099 6.57006L13.0845 6.19043ZM12.7036 6.52734L13.0456 6.89211L13.0491 6.88881L12.7036 6.52734ZM12.6587 6.56934L13.0069 6.92828L13.0122 6.92289L12.6587 6.56934ZM12.314 6.93262L11.9381 6.60272L11.9316 6.61048L12.314 6.93262ZM12.269 6.9834L11.8964 6.64995L11.8904 6.6569L12.269 6.9834ZM11.9604 7.37109L11.5588 7.07325L11.5561 7.07701L11.9604 7.37109ZM11.9155 7.42676L11.5517 7.08376C11.5369 7.09953 11.523 7.11624 11.5103 7.1338L11.9155 7.42676ZM11.6421 7.83887L11.215 7.57876L11.2102 7.58696L11.6421 7.83887ZM11.604 7.90332L12.033 8.16013L12.0359 8.15525L11.604 7.90332ZM11.3667 8.33789L11.8139 8.5615L11.815 8.55934L11.3667 8.33789ZM11.3354 8.4043L10.8882 8.18074L10.885 8.18724L11.3354 8.4043ZM11.1353 8.86328L10.669 8.6827L10.6671 8.68772L11.1353 8.86328ZM11.1108 8.92773L10.6427 8.75217L10.6427 8.75217L11.1108 8.92773ZM10.9507 9.41113L10.4701 9.27307L10.4699 9.27377L10.9507 9.41113ZM10.9341 9.46973L11.4162 9.60243L11.4165 9.60128L10.9341 9.46973ZM10.8188 9.95898L10.3278 9.86504C10.3263 9.87276 10.325 9.8805 10.3239 9.88828L10.8188 9.95898ZM10.8149 9.97949L10.32 9.90877C10.2828 10.169 10.4535 10.4137 10.7106 10.4685C10.9678 10.5233 11.2235 10.3697 11.2957 10.1169L10.8149 9.97949ZM10.8188 9.95801L11.3039 10.0793C11.3452 9.9141 11.2996 9.73926 11.1829 9.61529L10.8188 9.95801ZM6.28662 5.14355L5.93302 4.79005C5.74196 4.98116 5.73732 5.28951 5.92256 5.48628L6.28662 5.14355ZM9.82959 1.59961L9.47605 1.24604L9.47599 1.2461L9.82959 1.59961ZM22.436 10.3096L21.942 10.3865C21.9804 10.6332 21.9995 10.8839 21.9995 11.1367L22.4995 11.1367L22.9995 11.1367C22.9995 10.8334 22.9766 10.5313 22.9301 10.2327L22.436 10.3096ZM22.4995 11.1367H21.9995C21.9995 13.8183 19.8184 16 17.1392 16V16.5V17C20.3711 17 22.9995 14.3701 22.9995 11.1367H22.4995ZM17.1392 16.5L17.1392 16C15.1669 16 13.4283 14.8344 12.6694 13.054L12.2095 13.25L11.7495 13.446C12.6649 15.5937 14.7645 17 17.1392 17L17.1392 16.5ZM12.2095 13.25L12.3476 13.7305L22.5742 10.7901L22.436 10.3096L22.2979 9.82904L12.0713 12.7695L12.2095 13.25ZM10.6763 11.3506L10.3227 10.997L6.561 14.7588L6.91455 15.1123L7.2681 15.4659L11.0298 11.7041L10.6763 11.3506ZM6.91455 15.1123L6.56117 14.7586C5.28968 16.0289 3.22081 16.0293 1.95079 14.7588L1.59717 15.1123L1.24355 15.4658C2.90455 17.1274 5.60642 17.126 7.26794 15.466L6.91455 15.1123ZM1.59717 15.1123L1.95105 14.7591C0.68296 13.4886 0.682968 11.4195 1.95105 10.1491L1.59717 9.7959L1.24329 9.44267C-0.414452 11.1035 -0.414444 13.8047 1.24328 15.4655L1.59717 15.1123ZM1.59717 9.7959L1.95072 10.1495L5.87455 6.22562L5.521 5.87207L5.16744 5.51852L1.24361 9.44234L1.59717 9.7959ZM5.521 5.87207L5.15686 6.21472L10.3121 11.6932L10.6763 11.3506L11.0404 11.0079L5.88513 5.52942L5.521 5.87207ZM17.1313 5.79102L17.1313 6.29102C19.1849 6.29115 20.9993 7.57832 21.6942 9.47205L22.1636 9.2998L22.633 9.12756C21.7945 6.84254 19.607 5.29118 17.1314 5.29102L17.1313 5.79102ZM22.1636 9.2998L22.0254 8.81927L11.7461 11.7743L11.8843 12.2549L12.0224 12.7354L22.3017 9.78034L22.1636 9.2998ZM11.8843 12.2549L12.3736 12.1523C12.3271 11.9303 12.2966 11.7049 12.2828 11.4765L11.7837 11.5068L11.2846 11.5371C11.3014 11.8145 11.3385 12.0882 11.3949 12.3574L11.8843 12.2549ZM11.7837 11.5068L12.2822 11.4688C12.2744 11.3655 12.271 11.2602 12.271 11.1504L11.771 11.1504L11.271 11.1504C11.271 11.2806 11.275 11.4117 11.2851 11.5449L11.7837 11.5068ZM11.771 11.1504H12.271C12.271 10.8352 12.3007 10.527 12.3593 10.2293L11.8687 10.1328L11.378 10.0363C11.3066 10.3995 11.271 10.7723 11.271 11.1504H11.771ZM11.8687 10.1328L12.3594 10.2288C12.7698 8.13072 14.5514 6.47926 16.7442 6.30507L16.7046 5.80664L16.665 5.30821C14.0138 5.51882 11.8723 7.5096 11.378 10.0368L11.8687 10.1328ZM16.7046 5.80664L16.7453 6.30498C16.8616 6.29549 16.9872 6.29102 17.1313 6.29102V5.79102V5.29102C16.9667 5.29102 16.8131 5.29612 16.6639 5.3083L16.7046 5.80664ZM12.4888 0.5V1C13.3257 1 14.16 1.31783 14.7954 1.95316L15.1489 1.59961L15.5025 1.24606C14.6713 0.414846 13.5789 0 12.4888 0V0.5ZM15.1489 1.59961L14.7951 1.95293C15.4125 2.57112 15.7515 3.38855 15.7515 4.25977H16.2515H16.7515C16.7515 3.12263 16.3067 2.05131 15.5027 1.24629L15.1489 1.59961ZM16.2515 4.25977L15.7515 4.25971C15.7514 4.41876 15.7387 4.57899 15.7149 4.73909L16.2095 4.8125L16.7041 4.88591C16.7344 4.6817 16.7514 4.47229 16.7515 4.25982L16.2515 4.25977ZM16.2095 4.8125L16.1505 4.31599C16.1277 4.3187 16.1085 4.32231 16.0947 4.32523C16.0818 4.32798 16.0706 4.33078 16.0675 4.33155C16.0619 4.33294 16.0657 4.33196 16.0703 4.33095C16.076 4.3297 16.088 4.32723 16.1038 4.32524L16.1665 4.82129L16.2292 5.31734C16.2522 5.31444 16.2712 5.31065 16.2839 5.30786C16.2956 5.30532 16.3064 5.30259 16.3078 5.30223C16.3118 5.30126 16.3077 5.30232 16.302 5.30353C16.2954 5.30492 16.2836 5.30721 16.2684 5.30901L16.2095 4.8125ZM16.1665 4.82129L16.0943 4.32652C15.9069 4.35387 15.721 4.38927 15.5387 4.43237L15.6538 4.91895L15.7689 5.40552C15.9224 5.36922 16.0796 5.33925 16.2387 5.31606L16.1665 4.82129ZM15.6538 4.91895L15.538 4.43254C15.5288 4.43472 15.5195 4.43695 15.5097 4.43925C15.5001 4.44152 15.4902 4.44388 15.4804 4.44621L15.5962 4.93262L15.712 5.41902C15.7212 5.41684 15.7305 5.41462 15.7403 5.41232C15.7499 5.41004 15.7598 5.40768 15.7696 5.40535L15.6538 4.91895ZM15.5962 4.93262L15.4767 4.4471C15.2926 4.49242 15.1105 4.54438 14.9297 4.60527L15.0894 5.0791L15.249 5.55294C15.4002 5.502 15.5553 5.45761 15.7157 5.41813L15.5962 4.93262ZM15.0894 5.0791L14.8924 4.61952L14.8921 4.61943L15.0503 5.09375L15.2085 5.56807C15.2306 5.56068 15.2573 5.55111 15.2863 5.53868L15.0894 5.0791ZM15.0503 5.09375L14.8877 4.62093C14.7045 4.68394 14.5236 4.7543 14.3462 4.83231L14.5474 5.29004L14.7486 5.74777C14.8998 5.68131 15.0548 5.62095 15.2129 5.56657L15.0503 5.09375ZM14.5474 5.29004L14.3238 4.84283C14.3276 4.84088 14.3305 4.83952 14.3317 4.83899C14.3326 4.83855 14.3332 4.83828 14.3315 4.83907C14.3304 4.83955 14.327 4.8411 14.3233 4.84283C14.3194 4.84466 14.3138 4.84734 14.3072 4.85064L14.5308 5.29785L14.7544 5.74507C14.7505 5.74701 14.7476 5.74837 14.7464 5.7489C14.7455 5.74934 14.7449 5.74961 14.7466 5.74882C14.7477 5.74834 14.7511 5.74679 14.7548 5.74506C14.7587 5.74323 14.7644 5.74055 14.771 5.73725L14.5474 5.29004ZM14.5308 5.29785L14.3279 4.84085C14.1446 4.92222 13.9669 5.01156 13.7954 5.10652L14.0376 5.54395L14.2798 5.98137C14.4279 5.89938 14.5793 5.82335 14.7336 5.75486L14.5308 5.29785ZM14.0376 5.54395L13.8031 5.10237C13.8077 5.09988 13.8113 5.09807 13.8127 5.09739C13.8142 5.09665 13.8153 5.09613 13.8148 5.09636C13.8147 5.09641 13.8147 5.09642 13.8145 5.09653C13.8143 5.0966 13.814 5.09672 13.8138 5.09686C13.8132 5.09711 13.8124 5.09754 13.8114 5.09804C13.8096 5.0989 13.8057 5.10084 13.8009 5.10333L14.0317 5.54688L14.2625 5.99042C14.2586 5.99247 14.2556 5.99394 14.2549 5.99432C14.2541 5.99467 14.2533 5.99507 14.2545 5.99449C14.2551 5.99421 14.2572 5.99317 14.2597 5.99193C14.2621 5.99075 14.2666 5.98846 14.2721 5.98552L14.0376 5.54395ZM14.0317 5.54688L13.7904 5.10899C13.6156 5.2053 13.4491 5.30967 13.2909 5.41541L13.5688 5.83105L13.8468 6.2467C13.9884 6.15197 14.13 6.06365 14.2731 5.98476L14.0317 5.54688ZM13.5688 5.83105L13.2922 5.41455C13.2934 5.41374 13.2939 5.41343 13.2928 5.41413C13.2923 5.41446 13.2917 5.41486 13.2906 5.41554C13.2897 5.41614 13.2883 5.41704 13.2868 5.41796C13.2813 5.42152 13.2702 5.42865 13.2575 5.43751L13.5435 5.84766L13.8294 6.2578C13.8255 6.26056 13.8231 6.26201 13.8261 6.26011C13.8268 6.25967 13.8275 6.25922 13.8287 6.25847C13.8297 6.25781 13.8312 6.25687 13.8327 6.25588C13.8357 6.25393 13.8403 6.25099 13.8455 6.24756L13.5688 5.83105ZM13.5435 5.84766L13.2619 5.43445C13.1057 5.54088 12.956 5.65271 12.8109 5.76898L13.1235 6.15918L13.4362 6.54938C13.5635 6.44733 13.6925 6.35114 13.825 6.26087L13.5435 5.84766ZM13.1235 6.15918L12.7982 5.77954C12.7998 5.77815 12.8011 5.77709 12.8019 5.77641C12.8023 5.77606 12.8026 5.7758 12.8028 5.77563C12.8031 5.77546 12.8032 5.77536 12.8032 5.77536C12.8032 5.77535 12.8031 5.77542 12.8029 5.77558C12.8027 5.77574 12.8024 5.77597 12.802 5.77629C12.8011 5.777 12.8001 5.77779 12.7983 5.77915C12.7954 5.78138 12.7896 5.78586 12.7834 5.79075C12.777 5.79586 12.7685 5.80269 12.7591 5.8108L13.0845 6.19043L13.4099 6.57006C13.4082 6.57145 13.407 6.57251 13.4061 6.57319C13.4053 6.57386 13.4048 6.57425 13.4048 6.57425C13.4048 6.57425 13.4049 6.57418 13.4051 6.57403C13.4053 6.57387 13.4056 6.57364 13.406 6.57332C13.4069 6.57261 13.408 6.57181 13.4097 6.57046C13.4126 6.56823 13.4184 6.56375 13.4246 6.55886C13.431 6.55376 13.4395 6.54693 13.4489 6.53882L13.1235 6.15918ZM13.0845 6.19043L12.7686 5.80286C12.626 5.91907 12.4896 6.04023 12.3582 6.16588L12.7036 6.52734L13.0491 6.88881C13.1629 6.78 13.2796 6.67641 13.4004 6.578L13.0845 6.19043ZM12.7036 6.52734L12.3616 6.16259C12.3568 6.16716 12.3547 6.16894 12.3429 6.17979C12.3339 6.18805 12.32 6.2009 12.3051 6.21578L12.6587 6.56934L13.0122 6.92289C13.0118 6.92333 13.0132 6.92195 13.0194 6.91621C13.023 6.91289 13.025 6.91106 13.0302 6.90634C13.0344 6.90248 13.0398 6.8975 13.0456 6.89209L12.7036 6.52734ZM12.6587 6.56934L12.3106 6.21043C12.18 6.3371 12.0562 6.46827 11.9382 6.60279L12.314 6.93262L12.6898 7.26244C12.7919 7.14601 12.8973 7.03448 13.0068 6.92824L12.6587 6.56934ZM12.314 6.93262L11.9316 6.61048C11.9236 6.61989 11.9173 6.62672 11.8964 6.65L12.269 6.9834L12.6417 7.31679C12.6512 7.3061 12.6757 7.27933 12.6964 7.25476L12.314 6.93262ZM12.269 6.9834L11.8904 6.6569C11.7734 6.7925 11.6629 6.9329 11.5588 7.07327L11.9604 7.37109L12.3621 7.66892C12.4547 7.544 12.5499 7.42336 12.6477 7.3099L12.269 6.9834ZM11.9604 7.37109L11.5561 7.07701C11.5517 7.08297 11.5491 7.08646 11.5476 7.08822C11.5461 7.09016 11.5475 7.08819 11.5517 7.08376L11.9155 7.42676L12.2793 7.76975C12.3164 7.73045 12.3462 7.69075 12.3648 7.66517L11.9604 7.37109ZM11.9155 7.42676L11.5103 7.1338C11.4056 7.27865 11.3073 7.42731 11.215 7.5788L11.6421 7.83887L12.0691 8.09893C12.1484 7.96873 12.2322 7.84211 12.3207 7.71972L11.9155 7.42676ZM11.6421 7.83887L11.2102 7.58696C11.2051 7.59565 11.1998 7.60452 11.1933 7.6155C11.1871 7.6259 11.1797 7.63841 11.1721 7.65139L11.604 7.90332L12.0359 8.15525C12.041 8.14656 12.0462 8.13768 12.0528 8.12669C12.059 8.11628 12.0664 8.10376 12.074 8.09078L11.6421 7.83887ZM11.604 7.90332L11.175 7.64652C11.0837 7.79901 10.9977 7.95588 10.9184 8.11644L11.3667 8.33789L11.815 8.55934C11.8818 8.42413 11.9548 8.29081 12.033 8.16012L11.604 7.90332ZM11.3667 8.33789L10.9195 8.11428C10.9094 8.13438 10.9007 8.15372 10.8962 8.16348C10.8904 8.17614 10.889 8.1792 10.8882 8.18077L11.3354 8.4043L11.7827 8.62783C11.7927 8.60776 11.8015 8.58843 11.8059 8.5787C11.8117 8.56608 11.8131 8.56304 11.8139 8.5615L11.3667 8.33789ZM11.3354 8.4043L10.885 8.18724C10.808 8.34717 10.735 8.51227 10.669 8.68271L11.1353 8.86328L11.6015 9.04385C11.6565 8.90185 11.7185 8.76126 11.7859 8.62135L11.3354 8.4043ZM11.1353 8.86328L10.6671 8.68772C10.6636 8.69712 10.6599 8.70669 10.6558 8.71762C10.6517 8.72816 10.6472 8.74006 10.6427 8.75217L11.1108 8.92773L11.579 9.1033C11.5825 9.0939 11.5862 9.08432 11.5903 9.07339C11.5943 9.06285 11.5989 9.05096 11.6034 9.03885L11.1353 8.86328ZM11.1108 8.92773L10.6427 8.75217C10.5787 8.92278 10.5209 9.09634 10.4701 9.27307L10.9507 9.41113L11.4312 9.5492C11.4744 9.39907 11.5238 9.25052 11.579 9.10329L11.1108 8.92773ZM10.9507 9.41113L10.4699 9.27377C10.4655 9.28918 10.4582 9.31445 10.4517 9.33817L10.9341 9.46973L11.4165 9.60128C11.4208 9.58531 11.425 9.57098 11.4314 9.5485L10.9507 9.41113ZM10.9341 9.46973L10.452 9.33702C10.405 9.50792 10.3623 9.68441 10.3278 9.86504L10.8188 9.95898L11.3099 10.0529C11.3386 9.90315 11.3747 9.75291 11.4162 9.60243L10.9341 9.46973ZM10.8188 9.95898L10.3239 9.88828C10.3236 9.89022 10.3241 9.88643 10.3251 9.88073C10.3257 9.87761 10.3266 9.87283 10.3279 9.86686C10.3292 9.86102 10.3312 9.85249 10.3342 9.84212L10.8149 9.97949L11.2957 10.1169C11.3083 10.0729 11.3135 10.0323 11.3138 10.0297L10.8188 9.95898ZM10.8149 9.97949L11.3099 10.0502C11.3102 10.0483 11.3099 10.0507 11.3092 10.0545C11.3086 10.0582 11.3069 10.0672 11.3039 10.0793L10.8188 9.95801L10.3338 9.83673C10.325 9.87173 10.3208 9.90282 10.32 9.90877L10.8149 9.97949ZM10.8188 9.95801L11.1829 9.61529L6.65068 4.80083L6.28662 5.14355L5.92256 5.48628L10.4548 10.3007L10.8188 9.95801ZM6.28662 5.14355L6.64022 5.49706L10.1832 1.95311L9.82959 1.59961L9.47599 1.2461L5.93302 4.79005L6.28662 5.14355ZM9.82959 1.59961L10.1831 1.95318C10.8184 1.31795 11.653 1.00008 12.4888 1L12.4888 0.5L12.4887 0C11.3996 0.000106931 10.3071 0.415042 9.47605 1.24604L9.82959 1.59961Z" fill="#1F2E46"/>
</svg>
