<svg width="19" height="22" viewBox="0 0 19 22" fill="none" xmlns="http://www.w3.org/2000/svg">
<mask id="path-1-outside-1_515_10122" maskUnits="userSpaceOnUse" x="-0.999725" y="-0.99971" width="20" height="23" fill="black">
<rect fill="white" x="-0.999725" y="-0.99971" width="20" height="23"/>
<path d="M7.61551 1.53056C8.78611 0.823155 10.2136 0.823139 11.3841 1.53056C12.5535 2.23921 13.2953 3.5515 13.3411 4.99443V6.71416H13.9788C15.3278 6.70083 16.4819 7.7512 16.6936 9.18291L17.9739 17.7435C18.0817 18.5502 17.8558 19.3679 17.3567 19.9827C16.8275 20.6311 16.0622 21.0026 15.2591 20.9993H3.74051C2.93732 21.0038 2.17112 20.6322 1.64188 19.9827C1.14391 19.3712 0.91983 18.5576 1.02567 17.7542L2.30594 9.17216C2.52393 7.74478 3.67592 6.70192 5.02078 6.71416H5.65848V4.99443C5.70423 3.5515 6.44607 2.23921 7.61551 1.53056ZM9.36649 12.681C7.87854 12.681 6.56986 13.8963 6.44363 15.3929C6.39411 15.9712 6.5778 16.5194 6.95633 16.9319C7.33116 17.3443 7.85935 17.5716 8.43289 17.5716H10.2229C10.8691 17.5715 11.4353 17.3173 11.8216 16.8587C12.2078 16.3998 12.3612 15.7898 12.2581 15.1497C12.0324 13.7883 10.7357 12.6812 9.36649 12.681ZM12.8206 12.5696C12.4087 12.5696 12.0746 12.9063 12.0745 13.3216C12.0747 13.7368 12.4088 14.0735 12.8206 14.0735C13.2321 14.0732 13.5655 13.7366 13.5657 13.3216C13.5656 12.9065 13.2322 12.5699 12.8206 12.5696ZM6.46707 11.4388C5.95162 11.4388 5.53348 11.8604 5.53348 12.3802C5.53387 12.8996 5.95186 13.3206 6.46707 13.3206C6.98207 13.3203 7.3993 12.8995 7.39969 12.3802C7.39969 11.8606 6.98231 11.439 6.46707 11.4388ZM11.4397 10.6868C10.9243 10.6868 10.5061 11.1084 10.5061 11.6282C10.5065 12.1477 10.9245 12.5696 11.4397 12.5696C11.9547 12.5693 12.372 12.1475 12.3723 11.6282C12.3723 11.1086 11.9549 10.6871 11.4397 10.6868ZM8.89188 9.85771C8.27299 9.85771 7.77092 10.3636 7.77078 10.9876C7.77103 11.6115 8.27306 12.1185 8.89188 12.1185C9.51061 12.1184 10.0127 11.6115 10.013 10.9876C10.0128 10.3636 9.51067 9.85781 8.89188 9.85771ZM9.50027 2.14287C8.01432 2.14287 6.79064 3.39865 6.72098 4.99443V6.71416H12.2786V4.99443C12.2089 3.39875 10.9861 2.14307 9.50027 2.14287Z"/>
</mask>
<path d="M7.61551 1.53056L7.0983 0.674702L7.09726 0.675333L7.61551 1.53056ZM11.3841 1.53056L11.9023 0.675327L11.9013 0.67474L11.3841 1.53056ZM13.3411 4.99443H14.3411C14.3411 4.98387 14.3409 4.9733 14.3406 4.96274L13.3411 4.99443ZM13.3411 6.71416H12.3411C12.3411 7.26644 12.7888 7.71416 13.3411 7.71416V6.71416ZM13.9788 6.71416V7.71421L13.9887 7.71411L13.9788 6.71416ZM16.6936 9.18291L15.7044 9.32923L15.7046 9.33082L16.6936 9.18291ZM17.9739 17.7435L18.9651 17.611C18.9644 17.6058 18.9637 17.6007 18.9629 17.5955L17.9739 17.7435ZM17.3567 19.9827L18.1314 20.6151L18.1331 20.6129L17.3567 19.9827ZM15.2591 20.9993L15.2632 19.9993H15.2591V20.9993ZM3.74051 20.9993V19.9993L3.73496 19.9993L3.74051 20.9993ZM1.64188 19.9827L0.866433 20.6141L0.866644 20.6144L1.64188 19.9827ZM1.02567 17.7542L0.0366104 17.6066C0.0357686 17.6123 0.0349751 17.6179 0.03423 17.6236L1.02567 17.7542ZM2.30594 9.17216L1.31739 9.02119L1.31688 9.02462L2.30594 9.17216ZM5.02078 6.71416L5.01169 7.71416H5.02078V6.71416ZM5.65848 6.71416V7.71416C6.21076 7.71416 6.65848 7.26644 6.65848 6.71416H5.65848ZM5.65848 4.99443L4.65898 4.96274C4.65865 4.9733 4.65848 4.98386 4.65848 4.99443H5.65848ZM9.36649 12.681L9.36668 11.681H9.36649V12.681ZM6.44363 15.3929L7.43999 15.4782L7.4401 15.4769L6.44363 15.3929ZM6.95633 16.9319L7.69636 16.2593L7.69316 16.2559L6.95633 16.9319ZM10.2229 17.5716V18.5716H10.223L10.2229 17.5716ZM11.8216 16.8587L12.5864 17.5029L12.5866 17.5026L11.8216 16.8587ZM12.2581 15.1497L13.2454 14.9907L13.2446 14.9862L12.2581 15.1497ZM12.8206 12.5696L12.8214 11.5696H12.8206V12.5696ZM12.0745 13.3216L11.0745 13.3213V13.3222L12.0745 13.3216ZM12.8206 14.0735V15.0735H12.8214L12.8206 14.0735ZM13.5657 13.3216L14.5657 13.3222V13.3213L13.5657 13.3216ZM6.46707 11.4388L6.46757 10.4388H6.46707V11.4388ZM5.53348 12.3802H4.53348L4.53348 12.3809L5.53348 12.3802ZM6.46707 13.3206V14.3206H6.46757L6.46707 13.3206ZM7.39969 12.3802L8.39969 12.3809V12.3802H7.39969ZM11.4397 10.6868L11.4403 9.68681H11.4397V10.6868ZM10.5061 11.6282H9.50613V11.6288L10.5061 11.6282ZM11.4397 12.5696V13.5696H11.4403L11.4397 12.5696ZM12.3723 11.6282L13.3723 11.6288V11.6282H12.3723ZM8.89188 9.85771L8.89204 8.85771H8.89188V9.85771ZM7.77078 10.9876L6.77078 10.9874V10.988L7.77078 10.9876ZM8.89188 12.1185V13.1185H8.89204L8.89188 12.1185ZM10.013 10.9876L11.013 10.988V10.9874L10.013 10.9876ZM9.50027 2.14287L9.50041 1.14287H9.50027V2.14287ZM6.72098 4.99443L5.72193 4.95082C5.72129 4.96535 5.72098 4.97989 5.72098 4.99443H6.72098ZM6.72098 6.71416H5.72098C5.72098 7.26644 6.16869 7.71416 6.72098 7.71416V6.71416ZM12.2786 6.71416V7.71416C12.8309 7.71416 13.2786 7.26644 13.2786 6.71416H12.2786ZM12.2786 4.99443H13.2786C13.2786 4.97987 13.2783 4.96531 13.2776 4.95077L12.2786 4.99443ZM7.61551 1.53056L8.13272 2.38642C8.98532 1.87118 10.0144 1.87122 10.8668 2.38639L11.3841 1.53056L11.9013 0.67474C10.4128 -0.224938 8.5869 -0.224874 7.0983 0.674703L7.61551 1.53056ZM11.3841 1.53056L10.8658 2.3858C11.7273 2.9078 12.3059 3.89916 12.3416 5.02612L13.3411 4.99443L14.3406 4.96274C14.2848 3.20384 13.3798 1.57062 11.9023 0.675328L11.3841 1.53056ZM13.3411 4.99443H12.3411V6.71416H13.3411H14.3411V4.99443H13.3411ZM13.3411 6.71416V7.71416H13.9788V6.71416V5.71416H13.3411V6.71416ZM13.9788 6.71416L13.9887 7.71411C14.7842 7.70625 15.5575 8.33637 15.7044 9.32923L16.6936 9.18291L17.6829 9.03658C17.4062 7.16602 15.8713 5.69541 13.9689 5.71421L13.9788 6.71416ZM16.6936 9.18291L15.7046 9.33082L16.9849 17.8914L17.9739 17.7435L18.9629 17.5955L17.6826 9.035L16.6936 9.18291ZM17.9739 17.7435L16.9827 17.8759C17.0551 18.4175 16.901 18.9575 16.5803 19.3525L17.3567 19.9827L18.1331 20.6129C18.8106 19.7783 19.1084 18.683 18.9651 17.611L17.9739 17.7435ZM17.3567 19.9827L16.582 19.3504C16.2338 19.777 15.7493 20.0013 15.2632 19.9993L15.2591 20.9993L15.2549 21.9993C16.3751 22.0039 17.4212 21.4852 18.1314 20.615L17.3567 19.9827ZM15.2591 20.9993V19.9993H3.74051V20.9993V21.9993H15.2591V20.9993ZM3.74051 20.9993L3.73496 19.9993C3.24961 20.002 2.76507 19.7781 2.41711 19.351L1.64188 19.9827L0.866644 20.6144C1.57717 21.4864 2.62502 22.0055 3.74606 21.9993L3.74051 20.9993ZM1.64188 19.9827L2.41732 19.3513C2.09925 18.9607 1.94593 18.425 2.0171 17.8848L1.02567 17.7542L0.03423 17.6236C-0.106274 18.6902 0.188565 19.7816 0.866433 20.6141L1.64188 19.9827ZM1.02567 17.7542L2.01472 17.9017L3.29499 9.31971L2.30594 9.17216L1.31688 9.02462L0.0366104 17.6066L1.02567 17.7542ZM2.30594 9.17216L3.29448 9.32314C3.44569 8.33301 4.21743 7.70689 5.01169 7.71412L5.02078 6.71416L5.02988 5.7142C3.13441 5.69696 1.60218 7.15655 1.3174 9.02119L2.30594 9.17216ZM5.02078 6.71416V7.71416H5.65848V6.71416V5.71416H5.02078V6.71416ZM5.65848 6.71416H6.65848V4.99443H5.65848H4.65848V6.71416H5.65848ZM5.65848 4.99443L6.65798 5.02612C6.69371 3.89917 7.27232 2.9078 8.13376 2.38579L7.61551 1.53056L7.09726 0.675333C5.61982 1.57062 4.71475 3.20383 4.65898 4.96274L5.65848 4.99443ZM9.36649 12.681V11.681C7.35017 11.681 5.61635 13.3031 5.44717 15.3088L6.44363 15.3929L7.4401 15.4769C7.52338 14.4895 8.40691 13.681 9.36649 13.681V12.681ZM6.44363 15.3929L5.44728 15.3075C5.37468 16.1553 5.64536 16.9823 6.21949 17.608L6.95633 16.9319L7.69316 16.2559C7.51023 16.0565 7.41354 15.787 7.43999 15.4782L6.44363 15.3929ZM6.95633 16.9319L6.2163 17.6045C6.78884 18.2345 7.58996 18.5716 8.43289 18.5716V17.5716V16.5716C8.12874 16.5716 7.87348 16.4542 7.69635 16.2594L6.95633 16.9319ZM8.43289 17.5716V18.5716H10.2229V17.5716V16.5716H8.43289V17.5716ZM10.2229 17.5716L10.223 18.5716C11.1412 18.5715 11.9959 18.204 12.5864 17.5029L11.8216 16.8587L11.0567 16.2145C10.8747 16.4306 10.597 16.5716 10.2229 16.5716L10.2229 17.5716ZM11.8216 16.8587L12.5866 17.5026C13.1795 16.7983 13.3897 15.8871 13.2454 14.9907L12.2581 15.1497L11.2708 15.3087C11.3326 15.6925 11.2361 16.0014 11.0565 16.2147L11.8216 16.8587ZM12.2581 15.1497L13.2446 14.9862C12.9399 13.148 11.2307 11.6813 9.36668 11.681L9.36649 12.681L9.36629 13.681C10.2406 13.6811 11.1249 14.4286 11.2715 15.3132L12.2581 15.1497ZM12.8206 12.5696V11.5696C11.849 11.5696 11.0747 12.3614 11.0745 13.3213L12.0745 13.3216L13.0745 13.3218C13.0745 13.4512 12.9684 13.5696 12.8206 13.5696V12.5696ZM12.0745 13.3216L11.0745 13.3222C11.0751 14.2814 11.8488 15.0735 12.8206 15.0735V14.0735V13.0735C12.9688 13.0735 13.0744 13.1921 13.0745 13.321L12.0745 13.3216ZM12.8206 14.0735L12.8214 15.0735C13.7933 15.0728 14.5651 14.2802 14.5657 13.3222L13.5657 13.3216L12.5657 13.321C12.5658 13.1929 12.671 13.0736 12.8198 13.0735L12.8206 14.0735ZM13.5657 13.3216L14.5657 13.3213C14.5655 12.3625 13.793 11.5704 12.8214 11.5696L12.8206 12.5696L12.8198 13.5696C12.6714 13.5695 12.5657 13.4504 12.5657 13.3218L13.5657 13.3216ZM6.46707 11.4388V10.4388C5.3915 10.4388 4.53348 11.316 4.53348 12.3802H5.53348H6.53348C6.53348 12.4048 6.51173 12.4388 6.46707 12.4388V11.4388ZM5.53348 12.3802L4.53348 12.3809C4.53428 13.4448 5.39234 14.3206 6.46707 14.3206V13.3206V12.3206C6.51137 12.3206 6.53346 12.3544 6.53348 12.3794L5.53348 12.3802ZM6.46707 13.3206L6.46757 14.3206C7.54256 14.3201 8.39889 13.4438 8.39969 12.3809L7.39969 12.3802L6.39969 12.3794C6.39971 12.3551 6.42158 12.3206 6.46657 12.3206L6.46707 13.3206ZM7.39969 12.3802H8.39969C8.39969 11.317 7.5434 10.4393 6.46757 10.4388L6.46707 11.4388L6.46657 12.4388C6.42122 12.4387 6.39969 12.4041 6.39969 12.3802H7.39969ZM11.4397 10.6868V9.68681C10.3642 9.68681 9.50613 10.564 9.50613 11.6282H10.5061H11.5061C11.5061 11.6529 11.4844 11.6868 11.4397 11.6868V10.6868ZM10.5061 11.6282L9.50613 11.6288C9.5068 12.6917 10.3637 13.5696 11.4397 13.5696V12.5696V11.5696C11.4612 11.5696 11.4801 11.5797 11.49 11.5897C11.4997 11.5995 11.5061 11.6143 11.5061 11.6276L10.5061 11.6282ZM11.4397 12.5696L11.4403 13.5696C12.5163 13.569 13.3717 12.6907 13.3723 11.6288L12.3723 11.6282L11.3723 11.6276C11.3724 11.6044 11.3931 11.5697 11.4391 11.5696L11.4397 12.5696ZM12.3723 11.6282H13.3723C13.3723 10.565 12.5159 9.68747 11.4403 9.68681L11.4397 10.6868L11.4391 11.6868C11.3939 11.6868 11.3723 11.6523 11.3723 11.6282H12.3723ZM8.89188 9.85771V8.85771C7.71334 8.85771 6.77104 9.81862 6.77078 10.9874L7.77078 10.9876L8.77078 10.9878C8.7708 10.9085 8.83265 10.8577 8.89188 10.8577V9.85771ZM7.77078 10.9876L6.77078 10.988C6.77125 12.1552 7.71211 13.1185 8.89188 13.1185V12.1185V11.1185C8.83401 11.1185 8.77081 11.0679 8.77078 10.9872L7.77078 10.9876ZM8.89188 12.1185L8.89204 13.1185C10.0714 13.1183 11.0125 12.1553 11.013 10.988L10.013 10.9876L9.01297 10.9872C9.01294 11.0677 8.94978 11.1184 8.89171 11.1185L8.89188 12.1185ZM10.013 10.9876L11.013 10.9874C11.0127 9.81852 10.0702 8.8579 8.89204 8.85771L8.89188 9.85771L8.89171 10.8577C8.95114 10.8577 9.01295 10.9087 9.01297 10.9878L10.013 10.9876ZM9.50027 2.14287V1.14287C7.41616 1.14287 5.8121 2.88532 5.72193 4.95082L6.72098 4.99443L7.72003 5.03804C7.76919 3.91198 8.61249 3.14287 9.50027 3.14287V2.14287ZM6.72098 4.99443H5.72098V6.71416H6.72098H7.72098V4.99443H6.72098ZM6.72098 6.71416V7.71416H12.2786V6.71416V5.71416H6.72098V6.71416ZM12.2786 6.71416H13.2786V4.99443H12.2786H11.2786V6.71416H12.2786ZM12.2786 4.99443L13.2776 4.95077C13.1874 2.88578 11.5846 1.14315 9.50041 1.14287L9.50027 2.14287L9.50014 3.14287C10.3875 3.14299 11.2303 3.91172 11.2795 5.03809L12.2786 4.99443Z" fill="#1F2E46" mask="url(#path-1-outside-1_515_10122)"/>
</svg>
