<svg width="18" height="23" viewBox="0 0 18 23" fill="none" xmlns="http://www.w3.org/2000/svg">
<path d="M15.1467 8.88094H17.5V7.83332C17.5 6.27723 16.3504 4.98405 14.8438 4.7355V4.16667H15.375C15.6676 4.16667 15.9063 3.93136 15.9063 3.64286V2.08167C15.9063 1.21002 15.1862 0.5 14.3021 0.5H3.69788C2.81385 0.5 2.09374 1.21 2.09374 2.08167V3.64286C2.09374 3.93138 2.33239 4.16667 2.62499 4.16667H3.15624V4.7355C1.64965 4.98718 0.5 6.28032 0.5 7.83332V8.88094H4.52368C4.81629 8.88094 5.05492 9.11624 5.05492 9.40475C5.05492 9.69325 4.81628 9.92856 4.52368 9.92856H0.5V17.2619H3.27551C3.56812 17.2619 3.80676 17.4972 3.80676 17.7857C3.80676 18.0742 3.56811 18.3095 3.27551 18.3095H0.5V19.3571C0.5 21.0912 1.92877 22.5 3.68749 22.5H14.3125C16.0712 22.5 17.4999 21.0912 17.4999 19.3571V18.3095H10.7743C10.4817 18.3095 10.2431 18.0742 10.2431 17.7857C10.2431 17.4972 10.4817 17.2619 10.7743 17.2619H17.4999V9.92856H15.1467C14.8541 9.92856 14.6154 9.69325 14.6154 9.40475C14.6154 9.11624 14.8541 8.88094 15.1467 8.88094ZM11.6562 12.4167C11.7091 12.4167 11.7568 12.4484 11.7786 12.4954C11.7994 12.5425 11.7921 12.5977 11.7578 12.6366L6.97661 17.8747C6.94963 17.9034 6.91539 17.9197 6.87804 17.9197C6.85729 17.9197 6.8355 17.9146 6.81682 17.9044C6.7639 17.8757 6.73485 17.8154 6.75042 17.7581L7.77036 13.7302L6.34367 13.7292C6.30112 13.7292 6.25858 13.7088 6.23472 13.6719C6.21085 13.6382 6.20566 13.5911 6.21915 13.5512L7.8129 9.36073C7.83158 9.3106 7.88242 9.27684 7.93741 9.27684H11.6561C11.7018 9.27684 11.7433 9.30037 11.7703 9.33925C11.7973 9.37812 11.7973 9.42518 11.7755 9.46713L10.2772 12.4167L11.6562 12.4167Z" stroke="#1F2E46" stroke-linejoin="round"/>
</svg>
