<svg width="21" height="21" viewBox="0 0 21 21" fill="none" xmlns="http://www.w3.org/2000/svg">
<path d="M5.83301 1.93164L5.3474 2.05073L5.34758 2.05148L5.83301 1.93164ZM4.76172 8.02344L4.30489 7.82019L4.30487 7.82023L4.76172 8.02344ZM3.81055 14.251L4.2872 14.1L4.28716 14.0999L3.81055 14.251ZM10.499 18.8291L10.499 19.3291H10.499V18.8291ZM17.1895 14.251L17.6661 14.402L17.6661 14.4019L17.1895 14.251ZM16.2373 8.02246L16.6941 7.81922L16.6941 7.81918L16.2373 8.02246ZM15.165 1.93262L14.6797 1.81223L14.6796 1.81287L15.165 1.93262ZM15.2305 1.69238L15.4678 1.25231C15.3338 1.18001 15.1741 1.17275 15.034 1.23259C14.894 1.29243 14.7888 1.41283 14.7484 1.55967L15.2305 1.69238ZM20.499 10.5L20.999 10.5V10.5H20.499ZM10.499 20.5V21V21V20.5ZM0.5 10.5H0V10.5L0.5 10.5ZM5.76953 1.69141L6.25271 1.56282C6.21335 1.41492 6.10843 1.29319 5.96795 1.23246C5.82747 1.17173 5.66691 1.17868 5.53221 1.25132L5.76953 1.69141ZM10.499 0.5V0V0V0.5ZM14.6406 1.40234L15.1212 1.5402C15.1894 1.30242 15.0735 1.05051 14.8486 0.947636L14.6406 1.40234ZM14.5381 1.77734L14.0529 1.65662L14.0526 1.65769L14.5381 1.77734ZM15.6475 8.28516L15.1906 8.48837L15.1906 8.48841L15.6475 8.28516ZM16.5742 14.0566L17.0508 14.2077L17.0509 14.2076L16.5742 14.0566ZM10.499 18.1836V18.6836V18.6836V18.1836ZM4.4248 14.0566L3.94817 14.2077L3.94817 14.2077L4.4248 14.0566ZM5.35156 8.28516L5.80839 8.48841L5.80839 8.4884L5.35156 8.28516ZM6.45996 1.77734L5.97447 1.89692L5.97453 1.89717L6.45996 1.77734ZM6.36035 1.40039L6.15262 0.945585C5.92956 1.04747 5.81331 1.29609 5.87814 1.53259L6.36035 1.40039ZM10.499 11.5879V11.0879H10.499L10.499 11.5879ZM8.79297 13.0107L8.98372 13.4729C9.14128 13.4079 9.25486 13.2671 9.28506 13.0993L8.79297 13.0107ZM7.83105 14.4473H7.33105V14.4473L7.83105 14.4473ZM11.6143 16V16.5H11.6144L11.6143 16ZM13.167 14.4473L13.667 14.4473V14.4473H13.167ZM12.2061 13.0107L11.7141 13.0999C11.7444 13.2675 11.8581 13.4082 12.0157 13.4731L12.2061 13.0107ZM6.73438 10.6992L6.73465 11.1992H6.73466L6.73438 10.6992ZM5.70801 12.0781L5.20801 12.0781V12.0781H5.70801ZM6.73438 13.457L6.7341 13.957H6.73438V13.457ZM7.76074 12.0781H8.26074V12.0781L7.76074 12.0781ZM14.2646 10.6992L14.2647 10.1992H14.2646V10.6992ZM13.2373 12.0781H12.7373V12.0781L13.2373 12.0781ZM14.2646 13.457V13.957H14.2647L14.2646 13.457ZM15.29 12.0781L15.79 12.0781V12.0781H15.29ZM9.12988 8.42285V7.92285H9.12962L9.12988 8.42285ZM8.10449 9.80176L7.60449 9.80171V9.80176H8.10449ZM9.12988 11.1807L9.12962 11.6807H9.12988V11.1807ZM10.1572 9.80176H10.6572V9.80171L10.1572 9.80176ZM11.8682 8.42285L11.8684 7.92285H11.8682V8.42285ZM10.8418 9.80176L10.3418 9.80151V9.80176H10.8418ZM11.8682 11.1807V11.6807H11.8684L11.8682 11.1807ZM12.8945 9.80176H13.3945V9.80171L12.8945 9.80176ZM5.83301 1.93164L5.34758 2.05148C5.88637 4.23397 5.12484 5.97725 4.30489 7.82019L4.76172 8.02344L5.21854 8.22669C6.02698 6.40963 6.94932 4.36737 6.31843 1.8118L5.83301 1.93164ZM4.76172 8.02344L4.30487 7.82023C3.47274 9.69101 2.51243 11.8112 3.33393 14.4021L3.81055 14.251L4.28716 14.0999C3.59451 11.9154 4.37138 10.1313 5.21856 8.22664L4.76172 8.02344ZM3.81055 14.251L3.33389 14.402C4.36886 17.6691 7.74099 19.3291 10.499 19.3291L10.499 18.8291L10.499 18.3291C8.0513 18.3291 5.15616 16.8431 4.2872 14.1L3.81055 14.251ZM10.499 18.8291V19.3291C13.2576 19.3291 16.6308 17.6693 17.6661 14.402L17.1895 14.251L16.7128 14.0999C15.8436 16.843 12.9475 18.3291 10.499 18.3291V18.8291ZM17.1895 14.251L17.6661 14.4019C18.4868 11.8105 17.5266 9.69041 16.6941 7.81922L16.2373 8.02246L15.7805 8.2257C16.628 10.1306 17.4049 11.9148 16.7128 14.1L17.1895 14.251ZM16.2373 8.02246L16.6941 7.81918C15.8742 5.97654 15.1123 4.23407 15.6505 2.05236L15.165 1.93262L14.6796 1.81287C14.0494 4.3677 14.9721 6.40921 15.7805 8.22574L16.2373 8.02246ZM15.165 1.93262L15.6503 2.053C15.669 1.97787 15.6874 1.91633 15.7125 1.8251L15.2305 1.69238L14.7484 1.55967C14.7296 1.62779 14.7024 1.72092 14.6797 1.81223L15.165 1.93262ZM15.2305 1.69238L14.9931 2.13246C17.9725 3.73931 19.999 6.88844 19.999 10.5H20.499H20.999C20.999 6.50514 18.7568 3.02611 15.4678 1.25231L15.2305 1.69238ZM20.499 10.5L19.999 10.5C19.9989 15.7379 15.7369 20 10.499 20V20.5V21C16.2893 21 20.9988 16.2902 20.999 10.5L20.499 10.5ZM10.499 20.5V20C5.26179 20 1.00017 15.738 1 10.5L0.5 10.5L0 10.5C0.000188857 16.2901 4.70939 21 10.499 21V20.5ZM0.5 10.5H1C1 6.88782 3.02713 3.73836 6.00686 2.13149L5.76953 1.69141L5.53221 1.25132C2.24293 3.02511 0 6.50446 0 10.5H0.5ZM5.76953 1.69141L5.28635 1.82C5.31017 1.90949 5.32861 1.97411 5.3474 2.05073L5.83301 1.93164L6.31862 1.81256C6.29681 1.72361 6.27142 1.63312 6.25271 1.56282L5.76953 1.69141ZM10.499 0.5V1C11.902 1 13.2333 1.30854 14.4327 1.85705L14.6406 1.40234L14.8486 0.947636C13.5229 0.341384 12.0501 0 10.499 0V0.5ZM14.6406 1.40234L14.16 1.26448C14.1251 1.38603 14.0875 1.5174 14.0529 1.65662L14.5381 1.77734L15.0233 1.89807C15.053 1.77849 15.0859 1.66332 15.1212 1.5402L14.6406 1.40234ZM14.5381 1.77734L14.0526 1.65769C13.3704 4.42579 14.3365 6.56825 15.1906 8.48837L15.6475 8.28516L16.1043 8.08195C15.2423 6.14415 14.4323 4.29577 15.0236 1.897L14.5381 1.77734ZM15.6475 8.28516L15.1906 8.48841C16.0272 10.3687 16.715 11.9555 16.0975 13.9057L16.5742 14.0566L17.0509 14.2076C17.7979 11.8481 16.9225 9.92093 16.1043 8.0819L15.6475 8.28516ZM16.5742 14.0566L16.0976 13.9056C15.3226 16.3504 12.716 17.6836 10.499 17.6836V18.1836V18.6836C13.02 18.6836 16.1083 17.1813 17.0508 14.2077L16.5742 14.0566ZM10.499 18.1836V17.6836C8.28244 17.6836 5.67639 16.3505 4.90144 13.9056L4.4248 14.0566L3.94817 14.2077C4.89069 17.1814 7.97823 18.6836 10.499 18.6836V18.1836ZM4.4248 14.0566L4.90144 13.9056C4.28343 11.9555 4.97171 10.3689 5.80839 8.48841L5.35156 8.28516L4.89474 8.0819C4.07657 9.92078 3.20037 11.8481 3.94817 14.2077L4.4248 14.0566ZM5.35156 8.28516L5.80839 8.4884C6.66283 6.56793 7.62869 4.42563 6.94539 1.65752L6.45996 1.77734L5.97453 1.89717C6.56663 4.29581 5.75697 6.14391 4.89474 8.08191L5.35156 8.28516ZM6.45996 1.77734L6.94545 1.65776C6.91177 1.52104 6.87629 1.39122 6.84256 1.26819L6.36035 1.40039L5.87814 1.53259C5.9121 1.65646 5.94432 1.77452 5.97447 1.89692L6.45996 1.77734ZM6.36035 1.40039L6.56808 1.8552C7.76678 1.3077 9.09729 1 10.499 1V0.5V0C8.94945 2.68221e-07 7.47759 0.340408 6.15262 0.945585L6.36035 1.40039ZM10.499 11.5879L10.499 11.0879C9.40517 11.0879 8.48975 11.873 8.30088 12.9222L8.79297 13.0107L9.28506 13.0993C9.38909 12.5214 9.89417 12.0879 10.499 12.0879L10.499 11.5879ZM8.79297 13.0107L8.60221 12.5486C7.84174 12.8624 7.33105 13.6048 7.33105 14.4473H7.83105H8.33105C8.33105 14.0156 8.59204 13.6346 8.98372 13.4729L8.79297 13.0107ZM7.83105 14.4473L7.33105 14.4473C7.33118 15.5804 8.2528 16.5 9.38574 16.5V16V15.5C8.80396 15.5 8.33112 15.0269 8.33105 14.4472L7.83105 14.4473ZM9.38574 16V16.5H11.6143V16V15.5H9.38574V16ZM11.6143 16L11.6144 16.5C12.747 16.4997 13.6669 15.5797 13.667 14.4473L13.167 14.4473L12.667 14.4472C12.6669 15.0274 12.1946 15.4999 11.6141 15.5L11.6143 16ZM13.167 14.4473H13.667C13.667 13.6055 13.1576 12.8619 12.3965 12.5484L12.2061 13.0107L12.0157 13.4731C12.406 13.6338 12.667 14.0149 12.667 14.4473H13.167ZM12.2061 13.0107L12.698 12.9216C12.508 11.8729 11.5926 11.0879 10.499 11.0879V11.5879V12.0879C11.1035 12.0879 11.6093 12.5215 11.7141 13.0999L12.2061 13.0107ZM6.73438 10.6992L6.7341 10.1992C6.25678 10.1995 5.86254 10.4532 5.60416 10.8005C5.34738 11.1455 5.20807 11.5983 5.20801 12.0781L5.70801 12.0781L6.20801 12.0782C6.20805 11.7851 6.294 11.5485 6.40642 11.3974C6.51723 11.2485 6.63613 11.1993 6.73465 11.1992L6.73438 10.6992ZM5.70801 12.0781H5.20801C5.20801 12.5579 5.34744 13.0107 5.60424 13.3557C5.8626 13.7029 6.25682 13.9568 6.7341 13.957L6.73438 13.457L6.73465 12.957C6.63634 12.957 6.51738 12.9078 6.40645 12.7587C6.29397 12.6076 6.20801 12.371 6.20801 12.0781H5.70801ZM6.73438 13.457V13.957C7.21177 13.957 7.60609 13.7031 7.86447 13.3559C8.12129 13.0109 8.26074 12.558 8.26074 12.0781H7.76074H7.26074C7.26074 12.3711 7.17475 12.6077 7.06226 12.7589C6.95132 12.908 6.83246 12.957 6.73438 12.957V13.457ZM7.76074 12.0781L8.26074 12.0781C8.26068 11.5979 8.12113 11.145 7.86425 10.7999C7.60582 10.4528 7.21144 10.199 6.73409 10.1992L6.73438 10.6992L6.73466 11.1992C6.8324 11.1992 6.95116 11.248 7.06212 11.3971C7.17462 11.5482 7.2607 11.7849 7.26074 12.0782L7.76074 12.0781ZM14.2646 10.6992V10.1992C13.7874 10.1992 13.3928 10.4528 13.1341 10.7999C12.877 11.145 12.7373 11.598 12.7373 12.0781H13.2373H13.7373C13.7373 11.7851 13.8234 11.5486 13.936 11.3975C14.047 11.2485 14.1661 11.1992 14.2646 11.1992V10.6992ZM13.2373 12.0781L12.7373 12.0781C12.7373 12.5582 12.877 13.0111 13.1341 13.3561C13.3927 13.7033 13.7873 13.957 14.2646 13.957V13.457V12.957C14.1663 12.957 14.0471 12.9078 13.936 12.7587C13.8234 12.6075 13.7373 12.371 13.7373 12.0781L13.2373 12.0781ZM14.2646 13.457L14.2647 13.957C14.7422 13.957 15.1363 13.7029 15.3944 13.3556C15.6509 13.0105 15.79 12.5578 15.79 12.0781L15.29 12.0781L14.79 12.0781C14.79 12.3713 14.7041 12.608 14.5918 12.7591C14.4811 12.908 14.3625 12.957 14.2646 12.957L14.2646 13.457ZM15.29 12.0781H15.79C15.79 11.5983 15.6508 11.1455 15.3942 10.8004C15.1361 10.4532 14.742 10.1993 14.2647 10.1992L14.2646 10.6992L14.2646 11.1992C14.3624 11.1992 14.481 11.2482 14.5918 11.3971C14.7041 11.5482 14.79 11.7848 14.79 12.0781H15.29ZM9.12988 8.42285L9.12962 7.92285C8.6526 7.9231 8.25861 8.17692 8.00042 8.52405C7.74381 8.86907 7.60454 9.32181 7.60449 9.80171L8.10449 9.80176L8.60449 9.8018C8.60452 9.50844 8.69048 9.27188 8.80282 9.12084C8.91359 8.97191 9.03225 8.9229 9.13015 8.92285L9.12988 8.42285ZM8.10449 9.80176H7.60449C7.60449 10.2815 7.74379 10.7342 8.00034 11.0792C8.25844 11.4263 8.65243 11.6804 9.12962 11.6807L9.12988 11.1807L9.13015 10.6807C9.03238 10.6806 8.91367 10.6316 8.80282 10.4825C8.69041 10.3314 8.60449 10.0948 8.60449 9.80176H8.10449ZM9.12988 11.1807V11.6807C9.60738 11.6807 10.0019 11.427 10.2606 11.0797C10.5176 10.7346 10.6572 10.2817 10.6572 9.80176H10.1572H9.65723C9.65723 10.0947 9.5712 10.3312 9.45862 10.4824C9.34763 10.6314 9.22851 10.6807 9.12988 10.6807V11.1807ZM10.1572 9.80176L10.6572 9.80171C10.6572 9.32159 10.5175 8.86867 10.2604 8.52363C10.0017 8.1765 9.6072 7.92285 9.12988 7.92285V8.42285V8.92285C9.22833 8.92285 9.34745 8.97209 9.45851 9.12113C9.57111 9.27225 9.6572 9.50878 9.65723 9.8018L10.1572 9.80176ZM11.8682 8.42285V7.92285C11.391 7.92285 10.9968 8.17658 10.7384 8.52369C10.4816 8.86868 10.342 9.32148 10.3418 9.80151L10.8418 9.80176L11.3418 9.80201C11.3419 9.50857 11.428 9.27192 11.5405 9.12083C11.6514 8.97184 11.7702 8.92285 11.8682 8.92285V8.42285ZM10.8418 9.80176H10.3418C10.3418 10.2817 10.4814 10.7346 10.7382 11.0796C10.9966 11.4267 11.3909 11.6807 11.8682 11.6807V11.1807V10.6807C11.7703 10.6807 11.6514 10.6316 11.5404 10.4825C11.4278 10.3313 11.3418 10.0947 11.3418 9.80176H10.8418ZM11.8682 11.1807L11.8684 11.6807C12.3458 11.6804 12.7401 11.4266 12.9985 11.0793C13.2552 10.7342 13.3945 10.2815 13.3945 9.80176H12.8945H12.3945C12.3945 10.0948 12.3086 10.3313 12.1962 10.4824C12.0853 10.6313 11.9664 10.6806 11.8679 10.6807L11.8682 11.1807ZM12.8945 9.80176L13.3945 9.80171C13.3945 9.32185 13.2551 8.86907 12.9983 8.52403C12.7399 8.17687 12.3456 7.9231 11.8684 7.92285L11.8682 8.42285L11.8679 8.92285C11.9662 8.9229 12.0852 8.97211 12.1961 9.1211C12.3085 9.27219 12.3945 9.50872 12.3945 9.8018L12.8945 9.80176Z" fill="#1F2E46"/>
</svg>
