<svg width="23" height="23" viewBox="0 0 23 23" fill="none" xmlns="http://www.w3.org/2000/svg">
<path d="M11.6348 0.75C12.6595 0.750007 13.653 0.889853 14.5947 1.15234C14.8547 1.22483 15.0558 1.43155 15.1211 1.69336C15.1864 1.95531 15.1058 2.23289 14.9102 2.41895L14.0049 3.2793C14.0353 3.28933 14.0659 3.30059 14.0967 3.31348H14.0977C14.381 3.43271 14.6298 3.62578 14.7637 3.92188C14.8751 4.16854 14.861 4.4241 14.8594 4.43457V6.02734C14.8661 6.02805 14.8731 6.02855 14.8799 6.0293C15.3485 6.08103 16.0116 6.24014 16.5586 6.72461C16.7884 6.9281 17.131 7.22227 17.3496 7.58203H17.3486C17.7432 8.2272 17.7399 8.41777 18.1787 8.60742H18.1797C18.5315 8.7597 19.0202 8.89168 19.4707 8.92383H19.4697C19.8398 8.94987 20.2046 8.93678 20.5098 8.9209C20.6522 8.91349 20.8053 8.90426 20.916 8.90039C20.9727 8.89841 21.0376 8.89701 21.0996 8.89941C21.1251 8.90041 21.2093 8.90267 21.3096 8.92676L21.415 8.95898L21.417 8.95996C22.0696 9.21321 22.1639 9.87942 22.1885 10.167L22.2344 10.6953C22.2508 10.9733 22.2594 11.3339 22.2314 11.7197C22.177 12.47 21.9777 13.4838 21.2871 14.2178C20.1186 15.4597 18.872 15.9336 17.3672 15.9336C16.6796 15.9336 16.0672 15.935 15.5977 15.9375C15.6093 15.99 15.6162 16.0446 15.6162 16.1006V20.9805C15.6162 21.3037 15.4093 21.5906 15.1025 21.6924C14.0119 22.0541 12.8459 22.25 11.6348 22.25C10.6916 22.25 9.43814 22.1359 8.50879 21.8447C8.26341 21.7677 8.07488 21.5698 8.00879 21.3213C7.99208 21.2583 7.98355 21.1944 7.9834 21.1309C7.97835 21.1291 7.9728 21.1288 7.96777 21.127C7.67299 21.0183 7.47656 20.737 7.47656 20.4229V15.5908H2.0791C1.76248 15.5908 1.47991 15.3918 1.37305 15.0938C0.969873 13.9692 0.75 12.7593 0.75 11.5C0.75 10.2716 0.896093 9.70339 1.26074 8.6416C1.37711 8.30307 1.71657 8.09427 2.07129 8.14258C3.64214 8.3565 5.01899 8.46983 6.13574 8.40625C6.7336 8.37221 7.21955 8.28603 7.60742 8.16113C7.52467 8.03938 7.47761 7.89377 7.47754 7.74023V2.0791C7.47767 1.76106 7.67851 1.47773 7.97852 1.37207C9.12222 0.969315 10.3535 0.75 11.6348 0.75Z" stroke="#1F2E46" stroke-width="1.5" stroke-linejoin="round"/>
</svg>
